<svg height="512" viewBox="0 0 58 59" width="512" xmlns="http://www.w3.org/2000/svg"><g id="027---Red-Crowned-Crane" fill="none"><path id="Shape" d="m31 58.31c-.4648688.0159235-.8793359-.2907821-1-.74l-3-11.31c-.1108152-.413642.0540461-.8519317.41-1.09 2.27-1.53.64-6.17.62-6.22-.1905382-.5191477.0758523-1.0944617.595-1.285.5191477-.1905382 1.0944618.0758523 1.285.595.08.23 2 5.47-.81 8.11l2.9 10.69c.0789068.3049429.0095249.6292404-.1872456.8752035s-.4979281.38484-.8127544.3747965z" fill="#a56a43"/><path id="Shape" d="m27.64 39c-.6444506.0210464-1.2848768-.1090936-1.87-.38.69-.42-.39-2.24-.27-3.62.0358228-.48124.4102115-.8682486.89-.92.4257222-.0913352.8411549-.2253457 1.24-.4.34-.13 2.16.72 2.46.55.91 2.65-.5 4.77-2.45 4.77z" fill="#f3d55b"/><g fill="#a56a43"><path id="Shape" d="m19 58.38c-.2796775.0008965-.5469501-.1153694-.7369662-.3205868-.1900162-.2052175-.2854096-.4806308-.2630338-.7594132l1-12.38c.031494-.400201.2992546-.7427771.68-.87 2-.67 3.14-4 3.4-5.23.0551486-.2602165.2116976-.4877389.4350201-.6322417s.4950142-.1940773.7549799-.1377583c.5257713.1330773.8496269.6610062.73 1.19 0 .21-1 4.89-4 6.44l-1 11.78c-.041797.5208219-.4775063.9216745-1 .92z"/><path id="Shape" d="m29 59c-.4608398-.0027311-.8601381-.3200462-.96688-.7683619-.1067418-.4483157.1067173-.9115255.51688-1.1216381 2.72-1.36 4.78-.67 7.65-.09.2636214.0483833.4967861.2005671.6471903.4224133.1504042.2218463.2054573.4947837.1528097.7575867-.048025.267885-.2031601.5046241-.4296074.6555889-.2264472.1509649-.504643.203113-.7703926.1444111l-2.8-.58c-1.2028088-.2383587-2.4506586-.0731505-3.55.47-.1383204.0740366-.2931229.1118772-.45.11z"/><path id="Shape" d="m17 59c-.4608398-.0027311-.8601381-.3200462-.96688-.7683619-.1067418-.4483157.1067173-.9115255.51688-1.1216381 2.72-1.36 4.78-.67 7.65-.09.2636214.0483833.4967861.2005671.6471903.4224133.1504042.2218463.2054573.4947837.1528097.7575867-.048025.267885-.2031601.5046241-.4296074.6555889-.2264472.1509649-.504643.203113-.7703926.1444111l-2.8-.58c-1.2028088-.2383587-2.4506586-.0731505-3.55.47-.1383204.0740366-.2931229.1118772-.45.11z"/></g><path id="Shape" d="m40.9 23c-1.3024668.936897-2.772254 1.6157826-4.33 2-.3408307.081724-.6139987.335922-.72.67-1.06 3.54-3.25 7.67-6.72 9-.3988451.1746543-.8142778.3086648-1.24.4-.4832769.0524714-.858812.4448844-.89.93-.18 2-1 3-3 3s-2.82-.82-3-3c-.0157582-.2851428-.1526753-.5499441-.3762323-.7276432-.223557-.1776992-.5124221-.2513401-.7937677-.2023568-.25 0-.51.15-.83.24-1.94.56-3.35 1.79-5.16 2.25.1726473-.1884513.3635844-.3592897.57-.51 1.5-1.13-1.63-9.46-1.63-9.46l3.22-6.59c9-4 10-2.88 15-1.88 2.76.55 5.21.8 7 .24z" fill="#f9eab0"/><path id="Shape" d="m48 4 .66 2.62-1.66 1.38h-2c-3 0 0 4.12 0 8.12 0 2.55-1.62 5.09-4.1 6.87-.1 0 .35.08-2.8-.69-.272384-.0685063-.503402-.2484029-.6365609-.495698s-.1561819-.5391889-.0634391-.804302l.6-1.64c1.5353898-.4206066 2.6985684-1.6768395 3-3.24.48-1.91-.19-3.85-1-5.79 0-3-.49-6.65.51-7.89 1.49-1.81 4.71-.44 5.99-.44.4423007.7080513.9441149 1.37713698 1.5 2z" fill="#464f5d"/><path id="Shape" d="m46.49 2c-2.13 0-6.5.94-6.5 8.33-.9-2.12-2-4.24-2-6.33s2-4 5-4c1.4418709-.01290737 2.7790935.75121983 3.5 2z" fill="#e64c3c"/><path id="Shape" d="m18.87 26.89c3.0235069 1.0818809 6.3723539.7554325 9.13-.89z" fill="#f3d55b"/><path id="Shape" d="m18.55 27.84c-.3394023-.114325-.5920313-.4010346-.6627242-.7521281-.0706928-.3510936.0512905-.7132315.32-.95.2687096-.2367686.6433219-.3121969.9827242-.1978719 2.7422779.9999847 5.7884781.7173854 8.3-.77.4672916-.2111896 1.0186013-.0346812 1.2763444.408637.2577431.4433181.1383777 1.0097539-.2763444 1.311363-3.0037099 1.7897603-6.6516564 2.1384071-9.94.95z" fill="#f3d55b"/><path id="Shape" d="m17.09 27.09c-.13-.05-.5-.7 2.36 4 .33.81-.42 2-1.29 1.3l-1.64-1.39s-.61 4.9-2.11 6c-2.17 1.63-3.7 5.65-4.46 8.26-.3 1-1.95.93-1.95-.15 0-.65 0-3.34 0-4.18-.00724426-.4632097-.33168936-.8607986-.78403569-.9607909-.45234632-.0999924-.91414821.1237946-1.11596431.5407909-.87 1.78-1.68 7.51-2.27 8.85-.17328305.3570267-.54129373.5777993-.93786017.5626301s-.74663673-.2634094-.89213983-.6326301c-.81-2.65-2-7.81-2-10.29 0-3.93 1.59-12.76 16-18 1.2470212.7179952 2.2820048 1.7529788 3 3 .5027566.8481079.8990769 1.7549426 1.18 2.7.21.9-.42 1.55-1.64 1.06-.4961336-.1945187-.9803142-.4182435-1.45-.67z" fill="#464f5d"/><path id="Shape" d="m56.91 10-9.91-2 1-4 9.45 4.11c.4302401.21528732.6462.70642204.5140323 1.16900921-.1321678.46258718-.5749974.76549639-1.0540323.72099079z" fill="#f3d55b"/></g></svg>