<svg height="512" viewBox="0 0 59 60" width="512" xmlns="http://www.w3.org/2000/svg"><g id="011---Snail" fill="none"><path id="Shape" d="m59 59c-47 0-51.53 1.11-54.89-6-2.88-6.11-3.11-33-3.11-40-.037662-1.6246423.13033815-3.24752373.5-4.83l16.5.83c.5406152 1.622827.5406152 3.377173 0 5-1.87 4.8-5 11.07-5 17l30.62 18.88c2.4982117.566146 4.9621926 1.2739562 7.38 2.12 3.4783323 1.1993258 6.3495621 3.7116519 8 7z" fill="#fac176"/><circle id="Oval" cx="6" cy="6" fill="#f18d46" r="6"/><path id="Shape" d="m10 3v6c-1.29129122 1.7217216-3.53942813 2.4239867-5.58113883 1.7434165s-3.41886117-2.59126446-3.41886117-4.7434165 1.37715047-4.06284626 3.41886117-4.74341649 4.28984761.02169486 5.58113883 1.74341649z" fill="#fff"/><path id="Shape" d="m47.64 50.93c-4.6351901 1.7103524-9.7818916 1.3461131-14.13-1-2.1814851 1.1343441-4.6012681 1.7341487-7.06 1.75-3.390908-.0086531-6.6739609-1.1925312-9.29-3.35-4.0932764-5.0533717-6.2743932-11.3878164-6.16-17.89.1359096-5.2622766 2.2831167-10.2724264 6-14-1.77 4.27-4 9.56-4 14.56l30.62 18.88c1.31.27 2.62.62 4.02 1.05z" fill="#f18d46"/><path id="Shape" d="m47.62 48.79c-4.5930006 1.9514236-9.8495191 1.5370248-14.08-1.11-.6809492.3786486-1.385765.7126845-2.11 1-4.310309 1.8334209-9.2798819 1.1454444-12.93-1.79-3.1711995-4.0537238-5.0679509-8.9574352-5.45-14.09-.4242464-4.709182.943462-9.4050997 3.83-13.15 8.93-11.65 27.61-12.26 37.43.14 8 10.15 3.53 24.71-6.69 29z" fill="#cc6f56"/><circle id="Oval" cx="14" cy="6" fill="#f18d46" r="6"/><path id="Shape" d="m19 6c0 2.35130224-1.6382865 4.3849178-3.9357036 4.8854143-2.2974172.5004965-4.6331526-.6673712-5.61120569-2.8056028s-.33413251-4.66903015 1.54690929-6.0798115c1.5150882-1.13631617 3.5421478-1.31909603 5.236068-.47213595 1.6939201.84696007 2.763932 2.57827566 2.763932 4.47213595z" fill="#fff"/><g fill="#f5efca"><path id="Shape" d="m23.24 35c-.2642362.0721245-.5464907.0327076-.7808586-.1090472-.2343679-.1417547-.4003323-.3734379-.4591414-.6409528-.2362923-.7835306-.8356356-1.4052096-1.61-1.67-1.0266565-.2376953-2.1038751-.11408-3.05.35-1.3794889.6424766-2.9816399.5942637-4.32-.13-.0501599-.7491613-.0501599-1.5008387 0-2.25.2302147.001861.4527364.0830991.63.23.851194.6899372 2.0324137.8041217 3 .29 1.3711717-.6439282 2.9250298-.7855098 4.39-.4 1.4425951.4681628 2.5542365 1.6286264 2.96 3.09.071912.2656553.0311592.5492047-.1126584.7838545-.1438177.2346498-.3779853.3996547-.6473416.4561455z"/><path id="Shape" d="m26 27.13c-.0690356.5522847-.5727153.9440355-1.125.875-.5522847-.0690356-.9440356-.5727153-.875-1.125.0450082-.6894541-.1769967-1.3697918-.62-1.9-.8817653-.791158-2.0657238-1.1565773-3.24-1-1.8718116.161186-3.6548219-.827179-4.51-2.5.377688-.6269951.7917284-1.2313606 1.24-1.81.1594037.1155378.2811574.275557.35.46.52 1.42 1.53 1.85 3 1.85 1.728648-.1388242 3.4314371.4860191 4.66 1.71.8153994.9524031 1.2183677 2.1900913 1.12 3.44z"/><path id="Shape" d="m32 22.46c-.1643422.3179664-.4858336.524104-.8433717.5407627-.357538.0166586-.6968041-.1586924-.89-.4600001s-.2109705-.6827962-.0466283-1.0007626c.2799079-.6322646.3085133-1.3473985.08-2-.5652932-1.0398943-1.5413153-1.794588-2.69-2.08-1.80469-.5208921-3.1259383-2.0662807-3.36-3.93.62-.34 1.25-.64 1.88-.91.22.53-.17 2.13 2.16 3 3.33 1.17 5.02 3.69 3.71 6.84z"/><path id="Shape" d="m42.23 18.61c-.1259963 1.2498485-.7450155 2.3979132-1.72 3.19-.1730962.1298221-.3836298.2-.6.2-.4322776.0043522-.81841-.2695622-.9571606-.67899-.1387505-.4094279.0012991-.8616595.3471606-1.12101.5338039-.4435105.8714974-1.0793803.94-1.77-.0665769-1.1658498-.6132696-2.2519941-1.51-3-1.3063321-1.1495785-1.8651618-2.9301257-1.45-4.62.6701618.0424082 1.3377061.1191758 2 .23-.381992 1.0810878-.0367329 2.28548.86 3 1.3317631 1.1441633 2.0955428 2.8142461 2.09 4.57z"/><path id="Shape" d="m51.07 24.15c-.6990581.9787934-1.7550963 1.6433072-2.94 1.85-.5522847.071797-1.058203-.3177153-1.13-.87s.3177153-1.058203.87-1.13c.6299037-.1254422 1.1900079-.4821965 1.57-1 .5729439-1.0810102.6777575-2.3496156.29-3.51-.3650433-1.2636839-.1989168-2.6215878.46-3.76.5388068.3955673 1.0562035.8194989 1.55 1.27-.2324412.6428398-.2569287 1.3424823-.07 2 .5537256 1.7227016.3349257 3.6007335-.6 5.15z"/><path id="Shape" d="m58.42 31.94c-.7.7-2 3.34-4.71 3.73-1.191402.1497403-2.3940441-.1733576-3.35-.9-.4252593-.3534622-.4834622-.9847407-.13-1.41s.9847407-.4834622 1.41-.13c.525324.3804099 1.1779286.5417682 1.82.45 1.1787687-.3149552 2.1743744-1.104199 2.75-2.18.39-.57 1.43-1.8 2.12-1.8.0796919.7438409.1097584 1.4921633.09 2.24z"/><path id="Shape" d="m55.37 42.05c-.477267.7535833-1.012201 1.4690575-1.6 2.14-1.5052912.4930193-3.1444673.3708-4.56-.34-1.0344853-.611825-1.7855975-1.6073182-2.09-2.77-.056319-.2599657-.0067445-.5316574.1377583-.7549799s.3720252-.3798715.6322417-.4350201c.2599657-.056319.5316574-.0067445.7549799.1377583s.3798715.3720252.4350201.6322417c.1763288.6215437.5891671 1.1492588 1.15 1.47 1.1237087.4826022 2.3962913.4826022 3.52 0 .58-.2 1.17-.42 1.62-.08z"/><path id="Shape" d="m47.62 48.79c-.8249597.3483856-1.6780276.6260509-2.55.83-1.2150958-.478478-2.2189171-1.3758871-2.83-2.53-.5074764-1.0865956-.568514-2.3288905-.17-3.46.0919652-.2370134.2707505-.4301016.5-.54.3730393-.1801121.8185082-.11158 1.1201612.1723288.301653.2839087.3970328.7244105.2398388 1.1076712-.2028994.6154524-.1598998 1.2855294.12 1.87.6693798 1.0301433 1.738954 1.7335244 2.95 1.94.288902.0981039.5172118.3227313.62.61z"/><path id="Shape" d="m36.62 45c-1.0310541.6131084-1.4870086 1.8680288-1.09 3 .0597248.2309862.0348972.4757146-.07.69-.6636612-.2857894-1.3053938-.6200251-1.92-1h-.1c-.238269-1.8158764.6527391-3.5939326 2.25-4.49.4970563-.2568124 1.1081876-.0620562 1.365.435.2568124.4970563.0620563 1.1081876-.435 1.365z"/><path id="Shape" d="m27.5 41.1c-.4037087.0023715-.7692453-.2382408-.9266917-.6099894-.1574465-.3717485-.0759163-.8017067.2066917-1.0900106 1.2406063-1.2939088 3.1353187-1.7193328 4.81-1.08.5077826.2157051.7449432.8018944.53 1.31-.2118006.506169-.7919039.7471349-1.3.54-.9145159-.3316672-1.938734-.0834913-2.6.63-.1894983.1933362-.4492862.3015811-.72.3z"/><path id="Shape" d="m30.92 33.22c-.4098038.0003967-.7783727-.249279-.93-.63-.3002765-.6506218-.8643165-1.1418825-1.55-1.35-.5301933-.1546398-.8346396-.7098066-.6799999-1.24.1546397-.5301933.7098066-.8346397 1.2399999-.68 1.2771085.3866982 2.3194329 1.315647 2.85 2.54.118491.3070691.0782926.652782-.1074945.9244707-.1857871.2716886-.4933693.4345581-.8225055.4355293z"/><path id="Shape" d="m23.69 40.74c-.3900375.3877236-1.0199625.3877236-1.41 0-.495767-.4859786-1.1658806-.7525829-1.86-.74-1.1687429.199856-2.199487.8821797-2.84 1.88-.4040694.543662-.9143934.9995513-1.5 1.34-.31-.57-.6-1.17-.87-1.81.306014-.2159038.5788883-.4753028.81-.77.9822221-1.4766985 2.567426-2.443197 4.33-2.64 1.2565388-.0282204 2.4714094.4512389 3.37 1.33.3795498.3982385.3661449 1.0282657-.03 1.41z"/></g><path id="Shape" d="m48.05 34.47c-.57 5-5.28 8.76-10.18 7.08s-6.22-7.77-2.35-10.84c2.1673157-1.692595 5.2946732-1.3173121 7 .84.2237522.4214158.1186166.9422072-.2510975 1.243816-.369714.3016089-.9010092.3000111-1.2689025-.003816-.4858384-.6323055-1.2076773-1.0401445-2-1.13-2.92-.37-5 3.6-2.89 6.28.6190436.7931834 1.4568727 1.3876597 2.41 1.71 3.68 1.26 7.12-1.68 7.55-5.41.79-6.57-7.91-11.15-13.8-6.5-5 4-6.21 11.88-2.49 16.61 1.0694431 1.283088 2.3034129 2.4195507 3.67 3.38-.6417888.3809268-1.3101853.7151251-2 1-1.1839614-.9084164-2.2608689-1.9484206-3.21-3.1-4.39-5.55-3-14.83 2.8-19.45 7.28-5.76 17.96-.02 17.01 8.29z" fill="#a65a47"/><circle id="Oval" cx="13" cy="6" fill="#35495e" r="2"/><circle id="Oval" cx="5" cy="6" fill="#35495e" r="2"/><path id="Shape" d="m5 4c-.00650502.94780663-.67740906 1.76088862-1.60673862 1.94723856-.92932956.18634993-1.86184222-.3052136-2.23326138-1.17723856.27932761-1.10622312.92858934-2.08364432 1.84-2.77 1.1045695 0 2 .8954305 2 2z" fill="#fff"/><path id="Shape" d="m13 4c-.006505.94780663-.6774091 1.76088862-1.6067386 1.94723856-.9293296.18634993-1.86184224-.3052136-2.2332614-1.17723856.27932761-1.10622312.9285893-2.08364432 1.84-2.77 1.1045695 0 2 .8954305 2 2z" fill="#fff"/></g></svg>